<svg xmlns="http://www.w3.org/2000/svg" viewBox="0 0 64 64">
  <rect width="64" height="64" rx="14" fill="#0f172a"/>
  <path fill="#f8fafc" d="M32 12C20.95 12 12 21.05 12 32.2c0 8.94 5.72 16.52 13.66 19.2 1 .2 1.36-.44 1.36-.98 0-.48-.02-2.06-.03-3.74-5.56 1.23-6.73-2.39-6.73-2.39-.91-2.35-2.22-2.98-2.22-2.98-1.82-1.26.14-1.24.14-1.24 2.01.14 3.07 2.09 3.07 2.09 1.79 3.1 4.69 2.21 5.83 1.69.18-1.32.7-2.22 1.27-2.73-4.44-.51-9.11-2.26-9.11-10.06 0-2.22.78-4.03 2.05-5.45-.2-.51-.89-2.57.2-5.35 0 0 1.68-.55 5.5 2.08A18.94 18.94 0 0 1 32 21.64c1.7.01 3.4.23 5 .68 3.82-2.63 5.49-2.08 5.49-2.08 1.1 2.78.41 4.84.2 5.35 1.28 1.42 2.05 3.23 2.05 5.45 0 7.82-4.68 9.55-9.14 10.05.72.63 1.36 1.87 1.36 3.77 0 2.72-.02 4.91-.02 5.58 0 .54.36 1.19 1.37.98A20.2 20.2 0 0 0 52 32.2C52 21.05 43.05 12 32 12z"/>
</svg>
